<svg width="321" height="59" viewBox="0 0 321 59" fill="none" xmlns="http://www.w3.org/2000/svg">
<path fill-rule="evenodd" clip-rule="evenodd" d="M129.69 38.405H130.904V57.6093H125.496C117.402 57.6093 111.81 55.218 108.72 50.4353C104.452 56.1009 98.8235 58.9338 91.8334 58.9338C84.2547 58.9338 77.9269 56.1377 72.8499 50.5457C67.7729 44.8801 65.2344 37.8532 65.2344 29.4651C65.2344 21.0771 67.7729 14.087 72.8499 8.49496C77.9269 2.82934 84.2547 -0.003479 91.8334 -0.003479C97.2783 -0.003479 101.987 1.79922 105.961 5.40462V1.32095H125.827V34.5421C125.827 37.1174 127.115 38.405 129.69 38.405ZM88.5223 36.8599C90.4354 38.773 92.8635 39.7295 95.8067 39.7295C98.7499 39.7295 101.178 38.773 103.091 36.8599C105.004 34.8732 105.961 32.4083 105.961 29.4651C105.961 26.5219 105.004 24.0938 103.091 22.1808C101.178 20.1941 98.7499 19.2008 95.8067 19.2008C92.8635 19.2008 90.4354 20.1941 88.5223 22.1808C86.6093 24.0938 85.6527 26.5219 85.6527 29.4651C85.6527 32.4083 86.6093 34.8732 88.5223 36.8599Z" fill="black"/>
<path fill-rule="evenodd" clip-rule="evenodd" d="M237.435 58.9338C246.117 58.9338 253.364 56.1377 259.177 50.5457C265.064 44.8801 268.007 37.8532 268.007 29.4651C268.007 21.0771 265.064 14.087 259.177 8.49496C253.364 2.82934 246.117 -0.003479 237.435 -0.003479C228.752 -0.003479 221.468 2.82934 215.581 8.49496C209.769 14.087 206.862 21.0771 206.862 29.4651C206.862 37.8532 209.769 44.8801 215.581 50.5457C221.468 56.1377 228.752 58.9338 237.435 58.9338ZM237.435 39.7295C234.491 39.7295 232.063 38.773 230.15 36.8599C228.237 34.8732 227.281 32.4083 227.281 29.4651C227.281 26.5219 228.237 24.0938 230.15 22.1808C232.063 20.1941 234.491 19.2008 237.435 19.2008C240.378 19.2008 242.806 20.1941 244.719 22.1808C246.632 24.0938 247.589 26.5219 247.589 29.4651C247.589 32.4083 246.632 34.8732 244.719 36.8599C242.806 38.773 240.378 39.7295 237.435 39.7295Z" fill="black"/>
<path d="M279.452 53.4153C284.088 57.0943 289.901 58.9338 296.891 58.9338C303.587 58.9338 309.215 57.2046 313.777 53.7464C318.339 50.2881 320.62 45.5055 320.62 39.3984C320.62 34.8364 319.112 31.1207 316.095 28.2511C313.078 25.3815 308.369 23.2477 301.968 21.8497C295.934 20.5252 292.918 19.0168 292.918 17.3245C292.918 16.5887 293.249 16.0001 293.911 15.5586C294.573 15.1171 295.382 14.8964 296.339 14.8964C297.369 14.8964 298.252 15.2275 298.988 15.8897C299.797 16.4783 300.202 17.2509 300.202 18.2075H319.848C319.848 13.1305 317.567 8.82607 313.005 5.29425C308.516 1.76243 302.888 -0.003479 296.118 -0.003479C289.79 -0.003479 284.419 1.65206 280.004 4.96314C275.59 8.20064 273.382 12.7626 273.382 18.6489C273.382 23.358 275.001 27.2945 278.238 30.4585C281.55 33.5488 286.295 35.6826 292.476 36.8599C298.215 37.89 301.085 39.3616 301.085 41.2747C301.085 42.084 300.68 42.7462 299.871 43.2613C299.061 43.7764 298.105 44.0339 297.001 44.0339C295.603 44.0339 294.426 43.6292 293.469 42.8198C292.586 42.0105 292.145 41.0171 292.145 39.8399H272.61C272.61 45.1376 274.891 49.6627 279.452 53.4153Z" fill="black"/>
<path d="M138.168 57.6093V1.32094H158.034V57.6093H138.168Z" fill="black"/>
<path d="M204.162 0.451233C198.422 0.451233 193.382 2.91615 189.041 7.84597V1.33418H169.174V57.6226H189.041V32.4583C189.041 28.8529 190.329 26.0201 192.904 23.9599C195.479 21.8997 199.232 20.8696 204.162 20.8696V0.451233Z" fill="black"/>
<path d="M61.3956 39.6061H57.995C51.5588 39.6061 46.3365 34.4094 41.5683 29.6647C40.0724 28.1761 38.6212 26.732 37.1912 25.5069L61.2956 0.319183H37.9914L19.688 20.1059V0.319183H0.584579V57.6093H19.688V46.7107L24.3889 41.2097C27.7543 43.2881 30.5617 45.5911 33.2521 47.7982C39.5526 52.9667 45.2119 57.6093 55.8946 57.6093H61.3956V39.6061Z" fill="black"/>
</svg>
